           <svg
                        className="absolute top-1/2  -translate-y-1/2 right-4"
                        width="18"
                        height="18"
                        viewBox="0 0 18 18"
                        fill="none"
                        xmlns="http://www.w3.org/2000/svg"
                      >
                        <path
                          d="M17.6034 8.49243L1.55922 0.470331C1.43347 0.407443 1.29222 0.382245 1.15248 0.397771C1.01274 0.413298 0.880473 0.468887 0.771595 0.557845C0.667617 0.644989 0.590009 0.759409 0.547494 0.888242C0.504979 1.01707 0.499243 1.15521 0.530932 1.28713L2.46353 8.41221H10.7117V9.87078H2.46353L0.501761 16.974C0.472026 17.0841 0.468555 17.1997 0.491627 17.3115C0.5147 17.4232 0.563672 17.528 0.634606 17.6174C0.70554 17.7068 0.796457 17.7783 0.900046 17.8261C1.00364 17.8739 1.11701 17.8968 1.23104 17.8929C1.34521 17.8922 1.45761 17.8647 1.55922 17.8127L17.6034 9.79056C17.7229 9.72935 17.8231 9.63638 17.8931 9.52185C17.9631 9.40733 18.0002 9.27572 18.0002 9.14149C18.0002 9.00727 17.9631 8.87565 17.8931 8.76113C17.8231 8.64661 17.7229 8.55363 17.6034 8.49243Z"
                          fill="#E20712"
                        />
                      </svg>