<svg width="13" height="10" viewBox="0 0 13 10" fill="#1E1E1E" xmlns="http://www.w3.org/2000/svg">
<path d="M7.36673 1.99123C7.24274 1.85817 7.17524 1.68218 7.17845 1.50033C7.18166 1.31849 7.25533 1.14498 7.38393 1.01638C7.51253 0.887775 7.68604 0.814109 7.86788 0.8109C8.04973 0.807692 8.22572 0.875192 8.35878 0.999179L12.1024 4.74277C12.2338 4.87438 12.3077 5.05278 12.3077 5.23879C12.3077 5.42481 12.2338 5.60321 12.1024 5.73482L8.35878 9.47841C8.29452 9.54737 8.21703 9.60269 8.13093 9.64105C8.04482 9.67942 7.95188 9.70004 7.85763 9.70171C7.76338 9.70337 7.66976 9.68603 7.58236 9.65073C7.49496 9.61543 7.41557 9.56288 7.34891 9.49623C7.28226 9.42957 7.22971 9.35018 7.19441 9.26278C7.15911 9.17537 7.14177 9.08176 7.14343 8.98751C7.14509 8.89326 7.16572 8.80032 7.20409 8.71421C7.24245 8.62811 7.29777 8.55062 7.36673 8.48636L9.91237 5.94072H0.843525C0.657363 5.94072 0.478826 5.86677 0.34719 5.73513C0.215554 5.60349 0.141602 5.42496 0.141602 5.23879C0.141602 5.05263 0.215554 4.8741 0.34719 4.74246C0.478826 4.61082 0.657363 4.53687 0.843525 4.53687H9.91237L7.36673 1.99123Z" />
</svg>
