<svg width="28" height="28" viewBox="0 0 28 28" fill="none" xmlns="http://www.w3.org/2000/svg">
<path d="M22.1667 12.8333H9.13499L14.8283 7.14C15.2833 6.685 15.2833 5.93834 14.8283 5.48334C14.7204 5.37518 14.5922 5.28938 14.4511 5.23083C14.3099 5.17229 14.1586 5.14215 14.0058 5.14215C13.853 5.14215 13.7017 5.17229 13.5606 5.23083C13.4195 5.28938 13.2913 5.37518 13.1833 5.48334L5.49499 13.1717C5.38684 13.2796 5.30103 13.4078 5.24249 13.5489C5.18394 13.6901 5.15381 13.8414 5.15381 13.9942C5.15381 14.147 5.18394 14.2983 5.24249 14.4394C5.30103 14.5805 5.38684 14.7087 5.49499 14.8167L13.1833 22.505C13.2913 22.613 13.4196 22.6987 13.5607 22.7571C13.7018 22.8156 13.8531 22.8457 14.0058 22.8457C14.1586 22.8457 14.3098 22.8156 14.451 22.7571C14.5921 22.6987 14.7203 22.613 14.8283 22.505C14.9363 22.397 15.022 22.2688 15.0805 22.1276C15.1389 21.9865 15.169 21.8353 15.169 21.6825C15.169 21.5297 15.1389 21.3785 15.0805 21.2374C15.022 21.0962 14.9363 20.968 14.8283 20.86L9.13499 15.1667H22.1667C22.8083 15.1667 23.3333 14.6417 23.3333 14C23.3333 13.3583 22.8083 12.8333 22.1667 12.8333Z" fill="white"/>
</svg>
