<svg width="54" height="21" viewBox="0 0 54 21" fill="none" xmlns="http://www.w3.org/2000/svg">
<path d="M11.5247 16.7286C11.4002 16.729 11.2772 16.7016 11.1647 16.6482C11.0523 16.5949 10.9532 16.517 10.8747 16.4203L6.84973 11.4203C6.72716 11.2712 6.66016 11.0841 6.66016 10.8911C6.66016 10.6981 6.72716 10.5111 6.84973 10.362L11.0164 5.36196C11.1578 5.19178 11.3611 5.08476 11.5815 5.06444C11.8018 5.04412 12.0212 5.11217 12.1914 5.25362C12.3616 5.39507 12.4686 5.59833 12.4889 5.81869C12.5092 6.03904 12.4412 6.25844 12.2997 6.42862L8.57473 10.8953L12.1747 15.362C12.2766 15.4843 12.3414 15.6332 12.3613 15.7912C12.3812 15.9491 12.3554 16.1095 12.287 16.2533C12.2186 16.397 12.1105 16.5182 11.9754 16.6025C11.8403 16.6867 11.6839 16.7305 11.5247 16.7286Z" fill="white"/>
<path d="M25.964 10.8693C26.3187 10.9253 26.6407 11.0699 26.93 11.3033C27.2287 11.5366 27.462 11.8259 27.63 12.1713C27.8073 12.5166 27.896 12.8853 27.896 13.2773C27.896 13.7719 27.77 14.2199 27.518 14.6213C27.266 15.0133 26.8973 15.3259 26.412 15.5593C25.936 15.7833 25.3713 15.8953 24.718 15.8953H21.078V6.13726H24.578C25.2407 6.13726 25.8053 6.24926 26.272 6.47326C26.7387 6.68793 27.0887 6.98193 27.322 7.35526C27.5553 7.7286 27.672 8.1486 27.672 8.61526C27.672 9.19393 27.5133 9.6746 27.196 10.0573C26.888 10.4306 26.4773 10.7013 25.964 10.8693ZM22.352 10.3793H24.494C25.082 10.3793 25.5393 10.2393 25.866 9.95926C26.202 9.66993 26.37 9.27326 26.37 8.76926C26.37 8.26526 26.2067 7.8686 25.88 7.57926C25.5533 7.28993 25.082 7.14526 24.466 7.14526H22.352V10.3793ZM24.606 14.8873C25.2313 14.8873 25.7213 14.7333 26.076 14.4253C26.44 14.1173 26.622 13.6926 26.622 13.1513C26.622 12.6099 26.4353 12.1806 26.062 11.8633C25.6887 11.5459 25.1893 11.3873 24.564 11.3873H22.352V14.8873H24.606ZM29.1879 12.0313C29.1879 11.2473 29.3466 10.5613 29.6639 9.97326C29.9813 9.37593 30.4153 8.91393 30.9659 8.58726C31.5259 8.2606 32.1466 8.09726 32.8279 8.09726C33.4999 8.09726 34.0833 8.24193 34.5779 8.53126C35.0726 8.8206 35.4413 9.1846 35.6839 9.62326V8.22326H36.9719V15.8953H35.6839V14.4673C35.4319 14.9153 35.0539 15.2886 34.5499 15.5873C34.0553 15.8766 33.4766 16.0213 32.8139 16.0213C32.1326 16.0213 31.5166 15.8533 30.9659 15.5173C30.4153 15.1813 29.9813 14.7099 29.6639 14.1033C29.3466 13.4966 29.1879 12.8059 29.1879 12.0313ZM35.6839 12.0453C35.6839 11.4666 35.5673 10.9626 35.3339 10.5333C35.1006 10.1039 34.7833 9.77726 34.3819 9.55326C33.9899 9.31993 33.5559 9.20326 33.0799 9.20326C32.6039 9.20326 32.1699 9.31526 31.7779 9.53926C31.3859 9.76326 31.0733 10.0899 30.8399 10.5193C30.6066 10.9486 30.4899 11.4526 30.4899 12.0313C30.4899 12.6193 30.6066 13.1326 30.8399 13.5713C31.0733 14.0006 31.3859 14.3319 31.7779 14.5653C32.1699 14.7893 32.6039 14.9013 33.0799 14.9013C33.5559 14.9013 33.9899 14.7893 34.3819 14.5653C34.7833 14.3319 35.1006 14.0006 35.3339 13.5713C35.5673 13.1326 35.6839 12.6239 35.6839 12.0453ZM38.6489 12.0453C38.6489 11.2519 38.8075 10.5613 39.1249 9.97326C39.4422 9.37593 39.8809 8.91393 40.4409 8.58726C41.0102 8.2606 41.6589 8.09726 42.3869 8.09726C43.3295 8.09726 44.1042 8.32593 44.7109 8.78326C45.3269 9.2406 45.7329 9.87526 45.9289 10.6873H44.5569C44.4262 10.2206 44.1695 9.85193 43.7869 9.58126C43.4135 9.3106 42.9469 9.17526 42.3869 9.17526C41.6589 9.17526 41.0709 9.42726 40.6229 9.93126C40.1749 10.4259 39.9509 11.1306 39.9509 12.0453C39.9509 12.9693 40.1749 13.6833 40.6229 14.1873C41.0709 14.6913 41.6589 14.9433 42.3869 14.9433C42.9469 14.9433 43.4135 14.8126 43.7869 14.5513C44.1602 14.2899 44.4169 13.9166 44.5569 13.4313H45.9289C45.7235 14.2153 45.3129 14.8453 44.6969 15.3213C44.0809 15.7879 43.3109 16.0213 42.3869 16.0213C41.6589 16.0213 41.0102 15.8579 40.4409 15.5313C39.8809 15.2046 39.4422 14.7426 39.1249 14.1453C38.8075 13.5479 38.6489 12.8479 38.6489 12.0453ZM51.9128 15.8953L48.9028 12.5073V15.8953H47.6288V5.53526H48.9028V11.6253L51.8568 8.22326H53.6348L50.0228 12.0453L53.6488 15.8953H51.9128Z" fill="white"/>
</svg>
