<svg width="53" height="52" viewBox="0 0 53 52" fill="none" xmlns="http://www.w3.org/2000/svg">
<rect x="1.74115" y="1.02044" width="49.9591" height="49.9591" rx="24.9796" stroke="white" stroke-width="1.95911"/>
<path d="M36.6273 16.834V18.6043H28.5237V20.1502V20.5492V32.343H26.6038C26.1217 31.3623 25.4485 30.4397 24.5841 29.5753C23.7197 28.7109 22.7307 27.9879 21.6169 27.4061C20.5198 26.8076 19.3645 26.4336 18.1511 26.284L17.1787 23.8903C18.7911 22.9595 20.4035 22.1283 22.0159 21.3969C23.6283 20.6655 25.3404 20.0172 27.1523 19.4521L26.6038 20.4993V18.6043H16.0067V16.834H36.6273ZM26.6038 20.6988L27.1274 21.4219C26.2796 21.6546 25.3986 21.9621 24.4844 22.3444C23.5867 22.7267 22.7057 23.1257 21.8413 23.5413C20.9936 23.9568 20.2123 24.3641 19.4975 24.763C20.4284 24.9459 21.3842 25.295 22.365 25.8103C23.3623 26.3256 24.2683 26.9572 25.0828 27.7053C25.9139 28.4367 26.529 29.2346 26.9279 30.0989L26.7284 30.1488C26.6952 29.7665 26.6619 29.3842 26.6287 29.0018C26.6121 28.6195 26.6038 28.1624 26.6038 27.6305V20.6988ZM35.231 25.162C35.231 25.7105 35.1229 26.2342 34.9068 26.7328C34.6907 27.2149 34.3333 27.6138 33.8347 27.9297C33.336 28.2455 32.6711 28.4034 31.8399 28.4034C31.574 28.4034 31.3163 28.3951 31.067 28.3785C30.8343 28.3619 30.6015 28.3286 30.3688 28.2788L30.5184 26.4835C30.6182 26.5001 30.7345 26.5167 30.8675 26.5334C31.0171 26.5334 31.1833 26.5334 31.3662 26.5334C32.1641 26.5334 32.6794 26.3838 32.9121 26.0845C33.1614 25.7687 33.2861 25.3947 33.2861 24.9625C33.2861 24.0815 32.8539 23.3335 31.9895 22.7184C31.1418 22.0868 29.8784 21.6546 28.1995 21.4219L28.2743 19.5518C29.5543 19.6848 30.7179 20.0089 31.7651 20.5242C32.8124 21.0229 33.6518 21.6712 34.2835 22.4691C34.9151 23.2504 35.231 24.148 35.231 25.162Z" fill="white"/>
</svg>
