    <svg
    width="31"
    height="40"
    viewBox="0 0 31 40"
    fill="none"
    xmlns="http://www.w3.org/2000/svg"
    >
    <g clipPath="url(#clip0_283_723)">
    <path
    d="M11.027 9.71353C5.41477 9.71353 0.870117 14.2683 0.870117 19.8805C0.870117 25.4927 5.41477 30.0475 11.027 30.0475C16.6493 30.0475 21.2041 25.4927 21.2041 19.8805C21.2041 14.2683 16.6493 9.71353 11.027 9.71353ZM18.0727 15.8137H15.0734C14.7481 14.5429 14.2804 13.3228 13.6704 12.1943C15.5411 12.8348 17.0967 14.1362 18.0727 15.8137ZM11.0371 11.7876C11.881 13.0076 12.5418 14.3599 12.979 15.8137H9.09522C9.5324 14.3599 10.1933 13.0076 11.0371 11.7876ZM3.16786 21.9139C3.00519 21.2632 2.90352 20.5821 2.90352 19.8805C2.90352 19.179 3.00519 18.4978 3.16786 17.8471H6.60431C6.52297 18.5182 6.46197 19.1892 6.46197 19.8805C6.46197 20.5719 6.52297 21.2429 6.60431 21.9139H3.16786ZM4.00155 23.9473H7.00082C7.32616 25.2182 7.79385 26.4382 8.40387 27.5668C6.53314 26.9263 4.97759 25.6351 4.00155 23.9473ZM7.00082 15.8137H4.00155C4.97759 14.126 6.53314 12.8348 8.40387 12.1943C7.79385 13.3228 7.32616 14.5429 7.00082 15.8137ZM11.0371 27.9735C10.1933 26.7534 9.5324 25.4012 9.09522 23.9473H12.979C12.5418 25.4012 11.881 26.7534 11.0371 27.9735ZM13.4162 21.9139H8.65804C8.56654 21.2429 8.49537 20.5719 8.49537 19.8805C8.49537 19.1892 8.56654 18.508 8.65804 17.8471H13.4162C13.5077 18.508 13.5789 19.1892 13.5789 19.8805C13.5789 20.5719 13.5077 21.2429 13.4162 21.9139ZM13.6704 27.5668C14.2804 26.4382 14.7481 25.2182 15.0734 23.9473H18.0727C17.0967 25.6249 15.5411 26.9263 13.6704 27.5668ZM15.4699 21.9139C15.5513 21.2429 15.6123 20.5719 15.6123 19.8805C15.6123 19.1892 15.5513 18.5182 15.4699 17.8471H18.9064C19.069 18.4978 19.1707 19.179 19.1707 19.8805C19.1707 20.5821 19.069 21.2632 18.9064 21.9139H15.4699Z"
    fill="#3A3A3A"
    />
    </g>
    <defs>
    <clipPath id="clip0_283_723">
    <rect
    width="29.7189"
    height="39.1039"
    fill="white"
    transform="translate(0.870117 0.328583)"
    />
    </clipPath>
    </defs>
    </svg>
