<svg width="18" height="25" viewBox="0 0 18 25" fill="none" xmlns="http://www.w3.org/2000/svg">
<path d="M9.25535 15.6579C11.3522 15.6579 13.0448 13.9653 13.0448 11.8684V4.28947C13.0448 2.19263 11.3522 0.5 9.25535 0.5C7.15851 0.5 5.46588 2.19263 5.46588 4.28947V11.8684C5.46588 13.9653 7.15851 15.6579 9.25535 15.6579ZM16.7206 11.8684C16.1017 11.8684 15.5838 12.3232 15.4827 12.9421C14.9648 15.9105 12.3754 18.1842 9.25535 18.1842C6.13535 18.1842 3.54588 15.9105 3.02799 12.9421C2.98344 12.645 2.83424 12.3736 2.60728 12.1767C2.38032 11.9798 2.09052 11.8705 1.79009 11.8684C1.01956 11.8684 0.413249 12.5505 0.526933 13.3084C1.14588 17.0979 4.17746 20.0663 7.9922 20.6095V23.2368C7.9922 23.9316 8.56062 24.5 9.25535 24.5C9.95009 24.5 10.5185 23.9316 10.5185 23.2368V20.6095C12.3773 20.3439 14.1031 19.493 15.4455 18.1801C16.7878 16.8673 17.677 15.1608 17.9838 13.3084C18.1101 12.5505 17.4911 11.8684 16.7206 11.8684Z" fill="#8E8E8E"/>
</svg>
