<svg width="54" height="54" viewBox="0 0 54 54" fill="none" xmlns="http://www.w3.org/2000/svg">
<rect x="1.96016" y="1.8" width="50.4" height="50.4" rx="25.2" stroke="white" stroke-width="2.4"/>
<path d="M22.5599 34.1789C21.9286 34.1789 21.2362 34.077 20.4828 33.8734C19.7497 33.6494 18.986 33.2625 18.1919 32.7127C17.3977 32.1425 16.5933 31.3381 15.7788 30.2996C14.9642 29.261 14.17 27.9272 13.3962 26.2981L15.1068 25.2291C16.0435 27.184 17.0311 28.6909 18.0697 29.7498C19.1082 30.7883 20.2893 31.3076 21.613 31.3076C22.7126 31.3076 23.5577 30.992 24.1482 30.3607C24.7388 29.7294 25.034 29.0167 25.034 28.2225C25.034 27.7338 24.9119 27.245 24.6675 26.7563C24.4435 26.2676 24.0668 25.8603 23.5373 25.5345C23.0282 25.2087 22.3562 25.056 21.5213 25.0763L24.1177 24.6181L19.7497 27.0007L17.917 24.0072C18.365 23.6407 18.8333 23.3556 19.322 23.152C19.8311 22.928 20.3504 22.7956 20.8799 22.7549C21.4297 22.6938 21.9489 22.704 22.4377 22.7854L23.3846 23.2436C24.4231 23.6712 25.2682 24.2211 25.9199 24.8931C26.5715 25.565 27.0399 26.2778 27.3249 27.0312C27.6304 27.7847 27.7831 28.5178 27.7831 29.2305C27.7831 30.1061 27.5795 30.9207 27.1722 31.6741C26.7649 32.4276 26.1744 33.0385 25.4006 33.5069C24.6268 33.9549 23.6799 34.1789 22.5599 34.1789ZM22.9264 24.9541L19.6886 23.3658C20.7271 23.0603 21.5519 22.6734 22.1628 22.2051C22.794 21.7163 23.2522 21.2174 23.5373 20.7083C23.8224 20.1789 23.9649 19.6901 23.9649 19.2421C23.9649 18.9163 23.8835 18.6109 23.7206 18.3258C23.578 18.0203 23.3948 17.7963 23.1708 17.6538C22.4173 17.5723 21.5213 17.776 20.4828 18.2647C19.4646 18.7331 18.5177 19.3949 17.642 20.2501L15.7788 17.7454C16.4711 17.0531 17.2857 16.4625 18.2224 15.9738C19.1795 15.4647 20.1468 15.2101 21.1242 15.2101C21.8777 15.2101 22.5802 15.3629 23.2319 15.6683C23.8835 15.9534 24.4639 16.3403 24.9729 16.8291C25.482 17.2974 25.8689 17.8269 26.1337 18.4174C26.4188 18.9876 26.5613 19.5781 26.5613 20.1891C26.5613 21.0036 26.266 21.8691 25.6755 22.7854C25.0849 23.7018 24.1686 24.4247 22.9264 24.9541ZM31.0515 27.3978C30.3184 27.7643 29.4224 27.8152 28.3635 27.5505C27.3249 27.2858 26.0828 26.6341 24.6369 25.5956L24.9119 24.0989C25.4617 24.5061 26.0319 24.8014 26.6224 24.9847C27.2333 25.1476 27.8239 25.2087 28.394 25.168C28.9642 25.1272 29.4835 25.0051 29.9519 24.8014C30.4406 24.5774 30.8275 24.2923 31.1126 23.9461L31.0515 27.3978ZM33.1286 35.645L30.746 34.24V17.104L31.8457 17.5927L34.0755 19.3643V35.2785L33.1286 35.645ZM28.0886 18.112L26.8973 16.3403L27.2944 15.4851H36.6719L37.8631 17.2872L37.466 18.112H28.0886Z" fill="white"/>
</svg>
