<svg width="53" height="52" viewBox="0 0 53 52" fill="none" xmlns="http://www.w3.org/2000/svg">
<rect x="1.1806" y="1.02044" width="49.9591" height="49.9591" rx="24.9796" stroke="white" stroke-width="1.95911"/>
<path d="M30.2762 30.3234C29.4284 30.3234 28.7386 30.2153 28.2066 29.9992C27.6747 29.7831 27.2259 29.4673 26.8602 29.0517C26.4945 28.6195 26.1288 28.1042 25.7631 27.5058L26.5361 27.4061C26.1039 28.2039 25.6384 28.8107 25.1397 29.2262C24.6577 29.6418 24.1174 29.9327 23.519 30.0989C22.9372 30.2485 22.2723 30.3234 21.5243 30.3234C20.5934 30.3234 19.754 30.1405 19.0059 29.7748C18.2745 29.4091 17.7011 28.8938 17.2855 28.2289C16.8699 27.564 16.6621 26.7744 16.6621 25.8601C16.6621 25.1287 16.8117 24.4721 17.1109 23.8903C17.4102 23.2919 17.8423 22.8182 18.4075 22.4691C18.9727 22.12 19.6542 21.9455 20.4521 21.9455C21.3331 21.9455 22.0396 22.1533 22.5715 22.5688C23.1035 22.9844 23.3694 23.5496 23.3694 24.2644C23.3694 24.5303 23.3445 24.7963 23.2946 25.0622C23.2447 25.3282 23.1616 25.5526 23.0453 25.7355L21.3498 25.5859C21.383 25.4529 21.4162 25.3199 21.4495 25.1869C21.4827 25.0373 21.4994 24.9043 21.4994 24.788C21.4994 24.4223 21.3996 24.148 21.2001 23.9651C21.0007 23.7823 20.7264 23.6909 20.3773 23.6909C19.862 23.6909 19.4298 23.8737 19.0807 24.2394C18.7483 24.5885 18.5821 25.1038 18.5821 25.7853C18.5821 26.5334 18.8397 27.1484 19.355 27.6305C19.8703 28.1125 20.6599 28.3536 21.7238 28.3536C22.8707 28.3536 23.7102 28.0627 24.2421 27.4809C24.774 26.8991 25.0816 26.1261 25.1647 25.162H27.0597C27.1428 26.2757 27.4669 27.0902 28.0321 27.6055C28.6139 28.1042 29.3037 28.3536 30.1016 28.3536C30.9993 28.3536 31.6392 28.0377 32.0216 27.4061C32.4039 26.7578 32.5951 25.9183 32.5951 24.8877C32.5951 23.6742 32.3208 22.6104 31.7722 21.6961C31.2237 20.7819 30.4507 20.0172 29.4533 19.4022C28.4726 18.7872 27.3256 18.33 26.0124 18.0308C24.7159 17.715 23.3029 17.5571 21.7736 17.5571L22.023 15.4875C23.7351 15.5208 25.2644 15.7036 26.6109 16.0361C27.9739 16.3519 29.1541 16.8007 30.1515 17.3825C31.1655 17.9643 32.0049 18.6459 32.6699 19.4271C33.3348 20.1918 33.8251 21.0395 34.141 21.9704C34.4734 22.8847 34.6397 23.8488 34.6397 24.8628C34.6397 26.1427 34.4319 27.19 34.0163 28.0045C33.6174 28.8024 33.0854 29.3925 32.4205 29.7748C31.7556 30.1405 31.0408 30.3234 30.2762 30.3234Z" fill="white"/>
</svg>
