<svg width="28" height="28" viewBox="0 0 28 28" fill="none" xmlns="http://www.w3.org/2000/svg">
<path d="M25.0263 13.5984H23.4046C23.1927 11.3929 22.2199 9.32988 20.6532 7.76316C19.0865 6.19645 17.0235 5.2237 14.818 5.01175V3.39008C14.818 3.15802 14.7258 2.93546 14.5617 2.77136C14.3976 2.60727 14.175 2.51508 13.943 2.51508C13.7109 2.51508 13.4883 2.60727 13.3242 2.77136C13.1602 2.93546 13.068 3.15802 13.068 3.39008V5.01175C10.8721 5.23429 8.82154 6.21198 7.26622 7.77794C5.71089 9.34391 4.74721 11.4011 4.53964 13.5984H2.91797C2.80306 13.5984 2.68928 13.621 2.58312 13.665C2.47696 13.709 2.3805 13.7734 2.29925 13.8547C2.218 13.9359 2.15355 14.0324 2.10957 14.1386C2.0656 14.2447 2.04297 14.3585 2.04297 14.4734C2.04297 14.5883 2.0656 14.7021 2.10957 14.8083C2.15355 14.9144 2.218 15.0109 2.29925 15.0921C2.3805 15.1734 2.47696 15.2378 2.58312 15.2818C2.68928 15.3258 2.80306 15.3484 2.91797 15.3484H4.53964C4.75158 17.5539 5.72434 19.617 7.29105 21.1837C8.85776 22.7504 10.9208 23.7231 13.1263 23.9351V25.5567C13.1263 25.7888 13.2185 26.0114 13.3826 26.1755C13.5467 26.3396 13.7692 26.4317 14.0013 26.4317C14.2334 26.4317 14.4559 26.3396 14.62 26.1755C14.7841 26.0114 14.8763 25.7888 14.8763 25.5567V23.9351C17.081 23.721 19.1428 22.7475 20.7091 21.1812C22.2754 19.6149 23.2489 17.5531 23.463 15.3484H25.0846C25.1995 15.3484 25.3133 15.3258 25.4195 15.2818C25.5256 15.2378 25.6221 15.1734 25.7034 15.0921C25.7846 15.0109 25.8491 14.9144 25.893 14.8083C25.937 14.7021 25.9596 14.5883 25.9596 14.4734C25.9596 14.3585 25.937 14.2447 25.893 14.1386C25.8491 14.0324 25.7846 13.9359 25.7034 13.8547C25.6221 13.7734 25.5256 13.709 25.4195 13.665C25.3133 13.621 25.1995 13.5984 25.0846 13.5984H25.0263ZM13.943 22.2201C12.4108 22.2201 10.9131 21.7657 9.63915 20.9145C8.36522 20.0633 7.37231 18.8535 6.78598 17.4379C6.19965 16.0224 6.04624 14.4648 6.34515 12.9621C6.64406 11.4594 7.38186 10.0791 8.46525 8.99569C9.54864 7.9123 10.929 7.17451 12.4317 6.8756C13.9344 6.57669 15.492 6.7301 16.9075 7.31643C18.323 7.90276 19.5329 8.89567 20.3841 10.1696C21.2353 11.4435 21.6896 12.9413 21.6896 14.4734C21.6896 16.529 20.8738 18.5006 19.4214 19.9553C17.969 21.4099 15.9986 22.2287 13.943 22.2317V22.2201Z" fill="white"/>
<path d="M19.2281 14.4849C19.2281 15.533 18.9172 16.5575 18.3346 17.4288C17.7521 18.3001 16.9242 18.9789 15.9557 19.3795C14.9872 19.78 13.9216 19.8842 12.8938 19.6789C11.866 19.4736 10.9223 18.968 10.182 18.2261C9.44171 17.4841 8.93818 16.5393 8.73512 15.5111C8.53207 14.4828 8.63863 13.4175 9.04131 12.4499C9.44399 11.4822 10.1247 10.6558 10.9973 10.0752C11.8698 9.49461 12.895 9.18593 13.9431 9.18824C14.6381 9.18824 15.3263 9.32532 15.9683 9.59165C16.6102 9.85797 17.1934 10.2483 17.6843 10.7403C18.1752 11.2323 18.5642 11.8163 18.8292 12.4588C19.0941 13.1014 19.2296 13.7899 19.2281 14.4849Z" fill="white"/>
</svg>
