<svg width="24" height="24" viewBox="0 0 24 24" fill="none" xmlns="http://www.w3.org/2000/svg">
<path d="M11.8109 1.72879C7.73574 1.72879 4.4292 4.705 4.4292 8.37232C4.4292 14.2777 11.8109 22.3976 11.8109 22.3976C11.8109 22.3976 19.1926 14.2777 19.1926 8.37232C19.1926 4.705 15.8861 1.72879 11.8109 1.72879ZM11.8109 12.0632C11.2269 12.0632 10.656 11.89 10.1705 11.5656C9.68492 11.2411 9.30646 10.78 9.08298 10.2404C8.8595 9.7009 8.80103 9.10722 8.91496 8.53445C9.02889 7.96169 9.3101 7.43557 9.72304 7.02263C10.136 6.60969 10.6621 6.32848 11.2349 6.21455C11.8076 6.10062 12.4013 6.15909 12.9408 6.38257C13.4804 6.60605 13.9415 6.98451 14.266 7.47007C14.5904 7.95564 14.7636 8.52651 14.7636 9.11049C14.7627 9.89333 14.4514 10.6439 13.8978 11.1974C13.3443 11.751 12.5937 12.0623 11.8109 12.0632Z" fill="white"/>
</svg>
