<svg width="53" height="52" viewBox="0 0 53 52" fill="none" xmlns="http://www.w3.org/2000/svg">
<rect x="1.1806" y="1.02044" width="49.9591" height="49.9591" rx="24.9796" stroke="white" stroke-width="1.95911"/>
<path d="M15.5859 22.0701C16.7162 22.0701 17.6388 22.2862 18.3536 22.7184C19.085 23.134 19.6252 23.6742 19.9743 24.3392C20.34 24.9874 20.5228 25.669 20.5228 26.3838C20.5228 27.0487 20.4148 27.6388 20.1987 28.1541C19.9826 28.6694 19.7166 29.0434 19.4008 29.2761L18.7774 28.952H31.4191V30.6974H18.0544L17.3313 29.4008C17.6637 29.0683 17.9297 28.7026 18.1292 28.3037C18.3286 27.8881 18.4284 27.3728 18.4284 26.7578C18.4284 25.8601 18.1873 25.1454 17.7053 24.6134C17.2232 24.0815 16.5167 23.8155 15.5859 23.8155C15.0041 23.8155 14.4971 23.9402 14.0649 24.1896C13.6493 24.4389 13.3252 24.7797 13.0925 25.2119C12.8764 25.6274 12.7683 26.0929 12.7683 26.6082C12.7683 27.1733 12.8847 27.697 13.1174 28.179C13.3501 28.6445 13.7241 29.06 14.2394 29.4257L13.0925 30.8719C12.3777 30.3732 11.7959 29.7665 11.3471 29.0517C10.8983 28.3369 10.6738 27.5058 10.6738 26.5583C10.6738 25.6773 10.8733 24.9043 11.2723 24.2394C11.6878 23.5579 12.2613 23.026 12.9927 22.6436C13.7407 22.2613 14.6051 22.0701 15.5859 22.0701ZM32.3915 16.5846C33.6714 16.5846 34.8101 16.7924 35.8075 17.208C36.8048 17.6236 37.6526 18.2469 38.3507 19.0781C39.0655 19.8926 39.6058 20.9066 39.9715 22.12C40.3372 23.3169 40.52 24.7132 40.52 26.309C40.52 27.4227 40.387 28.578 40.1211 29.7748C39.8717 30.9716 39.4645 32.1352 38.8993 33.2656C38.3507 34.4126 37.6277 35.4515 36.73 36.3823L35.1592 35.1356C35.9072 34.3377 36.5139 33.4651 36.9794 32.5176C37.4448 31.5701 37.7856 30.5727 38.0017 29.5255C38.2178 28.4616 38.3258 27.3728 38.3258 26.2591C38.3258 25.2617 38.2261 24.2976 38.0266 23.3667C37.8271 22.4192 37.4947 21.5715 37.0292 20.8234C36.5638 20.0754 35.9488 19.4853 35.1841 19.0531C34.4195 18.6043 33.4637 18.3799 32.3167 18.3799C30.9702 18.3799 29.8482 18.7456 28.9506 19.477C28.0696 20.2084 27.4047 21.2473 26.9558 22.5938C26.5237 23.9236 26.3076 25.4861 26.3076 27.2814C26.3076 27.6637 26.3159 28.0377 26.3325 28.4034C26.3491 28.7525 26.374 29.0933 26.4073 29.4257C26.4073 29.5088 26.4073 29.592 26.4073 29.6751C26.4239 29.7416 26.4405 29.8164 26.4572 29.8995C26.5403 31.0464 26.7397 31.969 27.0556 32.6672C27.388 33.3653 27.7787 33.8723 28.2275 34.1881C28.6929 34.504 29.1667 34.6619 29.6487 34.6619C30.1474 34.6619 30.5048 34.4957 30.7209 34.1632C30.8206 34.0136 30.8954 33.8141 30.9453 33.5648C30.9952 33.3154 31.0201 32.983 31.0201 32.5674V20.5741H33.1894V32.0937C33.1894 32.9082 33.1146 33.5648 32.965 34.0635C32.832 34.5788 32.6159 35.011 32.3167 35.36C32.0341 35.6759 31.6767 35.9252 31.2445 36.1081C30.8289 36.2909 30.322 36.3823 29.7235 36.3823C28.6431 36.3823 27.6789 36.0416 26.8312 35.36C25.9834 34.6951 25.3185 33.6728 24.8364 32.2931C24.3544 30.9135 24.1134 29.1847 24.1134 27.1068C24.1134 25.5277 24.2879 24.0898 24.637 22.7932C25.0027 21.4967 25.5346 20.3913 26.2328 19.477C26.9475 18.5461 27.8119 17.8313 28.8259 17.3327C29.8565 16.834 31.045 16.5846 32.3915 16.5846Z" fill="white"/>
</svg>
