<svg width="53" height="52" viewBox="0 0 53 52" fill="none" xmlns="http://www.w3.org/2000/svg">
<rect x="1.1806" y="1.02044" width="49.9591" height="49.9591" rx="24.9796" stroke="white" stroke-width="1.95911"/>
<path d="M32.4931 37.0057L29.9498 35.7341C30.4152 35.0858 30.5981 34.5455 30.4983 34.1133C30.4152 33.6978 30.0495 33.3071 29.4012 32.9414L24.2149 30.3982C23.1012 29.8828 22.1786 29.1681 21.4472 28.2538C20.7158 27.3396 20.3501 26.2175 20.3501 24.8877V18.0807L21.173 18.4298L23.068 19.9507V27.7801L29.102 30.6724C30.1659 31.1711 31.0053 31.6366 31.6204 32.0687C32.2354 32.5009 32.6759 32.9331 32.9419 33.3653C33.2245 33.7975 33.3658 34.2713 33.3658 34.7866C33.3658 35.2021 33.2827 35.5928 33.1164 35.9585C32.9668 36.3408 32.759 36.6899 32.4931 37.0057ZM27.606 29.0517L26.4341 27.2565L28.3041 26.1095V18.0807L29.102 18.4298L31.022 19.9507V23.4166C31.022 24.5636 30.9222 25.4944 30.7227 26.2092C30.5399 26.9074 30.1991 27.4725 29.7004 27.9047C29.2184 28.3203 28.5202 28.7026 27.606 29.0517ZM18.6297 18.9284L17.6573 17.4823L17.9814 16.7841H32.8671L33.8395 18.2552L33.5154 18.9284H18.6297Z" fill="white"/>
</svg>
