<svg width="44" height="60" viewBox="0 0 44 60" fill="none" xmlns="http://www.w3.org/2000/svg">
<path d="M21.9965 37.8947C27.2386 37.8947 31.4702 33.6632 31.4702 28.4211V9.47368C31.4702 4.23158 27.2386 0 21.9965 0C16.7544 0 12.5229 4.23158 12.5229 9.47368V28.4211C12.5229 33.6632 16.7544 37.8947 21.9965 37.8947ZM40.6597 28.4211C39.1123 28.4211 37.8176 29.5579 37.565 31.1053C36.2702 38.5263 29.7965 44.2105 21.9965 44.2105C14.1965 44.2105 7.72286 38.5263 6.42812 31.1053C6.31675 30.3625 5.94377 29.6839 5.37636 29.1917C4.80896 28.6996 4.08446 28.4263 3.33338 28.4211C1.40707 28.4211 -0.108724 30.1263 0.175487 32.0211C1.72286 41.4947 9.3018 48.9158 18.8386 50.2737V56.8421C18.8386 58.5789 20.2597 60 21.9965 60C23.7334 60 25.1544 58.5789 25.1544 56.8421V50.2737C29.8014 49.6098 34.1159 47.4824 37.4718 44.2003C40.8278 40.9182 43.0505 36.6521 43.8176 32.0211C44.1334 30.1263 42.586 28.4211 40.6597 28.4211Z" fill="white"/>
</svg>
