<svg width="110" height="110" viewBox="0 0 110 110" fill="none" xmlns="http://www.w3.org/2000/svg">
<rect x="2.56098" y="2.56098" width="104.878" height="104.878" rx="52.439" fill="white"/>
<rect x="2.56098" y="2.56098" width="104.878" height="104.878" rx="52.439" stroke="url(#paint0_linear_1_269)" stroke-width="4.87805"/>
<path d="M54.9972 61.5789C59.3656 61.5789 62.8919 58.0526 62.8919 53.6841V37.8947C62.8919 33.5262 59.3656 29.9999 54.9972 29.9999C50.6287 29.9999 47.1024 33.5262 47.1024 37.8947V53.6841C47.1024 58.0526 50.6287 61.5789 54.9972 61.5789ZM70.5498 53.6841C69.2603 53.6841 68.1814 54.6315 67.9708 55.921C66.8919 62.1052 61.4972 66.842 54.9972 66.842C48.4972 66.842 43.1024 62.1052 42.0235 55.921C41.9307 55.302 41.6198 54.7365 41.147 54.3264C40.6742 53.9163 40.0704 53.6885 39.4445 53.6841C37.8393 53.6841 36.5761 55.1052 36.8129 56.6841C38.1024 64.5789 44.4182 70.7631 52.3656 71.8947V77.3683C52.3656 78.8157 53.5498 79.9999 54.9972 79.9999C56.4445 79.9999 57.6287 78.8157 57.6287 77.3683V71.8947C61.5012 71.3414 65.0966 69.5686 67.8932 66.8335C70.6898 64.0984 72.5422 60.5433 73.1814 56.6841C73.4445 55.1052 72.1551 53.6841 70.5498 53.6841Z" fill="#FF0000"/>
<defs>
<linearGradient id="paint0_linear_1_269" x1="55" y1="5" x2="55" y2="105" gradientUnits="userSpaceOnUse">
<stop stop-color="#FF0000"/>
<stop offset="1" stop-color="#710000"/>
</linearGradient>
</defs>
</svg>
