<svg width="53" height="52" viewBox="0 0 53 52" fill="none" xmlns="http://www.w3.org/2000/svg">
<rect x="1.65521" y="1.02044" width="49.9591" height="49.9591" rx="24.9796" stroke="white" stroke-width="1.95911"/>
<path d="M26.0174 35.6701L24.5961 34.3486L29.4084 29.7856V18.3658H28.5108L28.5607 16.5705H35.7916V18.3658H31.5528V30.384L26.0174 35.6701ZM22.4518 30.6832C21.5708 30.6832 20.7646 30.4671 20.0332 30.035C19.3018 29.6028 18.72 28.9295 18.2878 28.0153C17.8722 27.0844 17.6644 25.8876 17.6644 24.4248C17.6644 23.1448 17.8722 22.0311 18.2878 21.0836C18.7034 20.1361 19.2685 19.3465 19.9833 18.7149C20.5153 18.2328 21.122 17.8338 21.8035 17.518C22.485 17.2022 23.2913 16.9695 24.2221 16.8199C25.153 16.6536 26.2418 16.5705 27.4885 16.5705H28.9097V18.3658H27.1893C26.1254 18.3658 25.2361 18.4323 24.5213 18.5652C23.8066 18.6816 23.2165 18.8478 22.751 19.0639C22.3022 19.28 21.9116 19.5377 21.5791 19.8369C20.9474 20.4021 20.4654 21.0836 20.1329 21.8815C19.8005 22.6794 19.6342 23.5853 19.6342 24.5993C19.6342 25.6299 19.7589 26.4694 20.0083 27.1177C20.2742 27.7659 20.6233 28.2397 21.0555 28.5389C21.5043 28.8381 22.0113 28.9877 22.5765 28.9877C23.0087 28.9877 23.3827 28.8963 23.6985 28.7134C24.0143 28.514 24.2637 28.2314 24.4465 27.8657C24.6294 27.5 24.7208 27.0512 24.7208 26.5192C24.7208 25.6881 24.5047 25.0564 24.0725 24.6242C23.6403 24.1754 23.0835 23.951 22.4019 23.951C21.737 23.951 21.1137 24.1256 20.5319 24.4746C19.9501 24.8237 19.4182 25.2642 18.9361 25.7962L18.5621 24.2004C19.0608 23.6186 19.6758 23.1448 20.4072 22.7791C21.1552 22.3968 21.9365 22.2056 22.751 22.2056C23.9479 22.2056 24.912 22.5713 25.6434 23.3027C26.3914 24.0341 26.7654 25.0232 26.7654 26.2699C26.7654 27.1842 26.5909 27.9737 26.2418 28.6386C25.8927 29.3036 25.394 29.8105 24.7457 30.1596C24.1141 30.5087 23.3494 30.6832 22.4518 30.6832Z" fill="white"/>
</svg>
