<svg width="53" height="52" viewBox="0 0 53 52" fill="none" xmlns="http://www.w3.org/2000/svg">
<rect x="1.74115" y="1.02044" width="49.9591" height="49.9591" rx="24.9796" stroke="white" stroke-width="1.95911"/>
<path d="M29.5423 32.6422C28.7444 32.6422 28.0462 32.4926 27.4478 32.1934C26.866 31.8942 26.3258 31.4786 25.8271 30.9467C25.3284 30.4148 24.8048 29.7914 24.2562 29.0766C23.7742 28.4117 23.3586 27.9297 23.0095 27.6305C22.6605 27.3313 22.2366 27.1816 21.7379 27.1816C21.2725 27.1816 20.8818 27.3313 20.566 27.6305C20.2668 27.9297 20.1172 28.3702 20.1172 28.952C20.1172 29.4673 20.2751 29.8995 20.5909 30.2485C20.9234 30.5976 21.3722 30.7722 21.9374 30.7722C22.5025 30.7722 22.968 30.6059 23.3337 30.2735C23.716 29.941 24.0402 29.459 24.3061 28.8273L25.6276 30.3234C25.3118 30.7722 24.9793 31.1711 24.6303 31.5202C24.2812 31.8693 23.8822 32.1435 23.4334 32.343C23.0012 32.5425 22.461 32.6422 21.8127 32.6422C20.9317 32.6422 20.2252 32.4594 19.6933 32.0937C19.1614 31.728 18.7707 31.2625 18.5214 30.6974C18.2887 30.1156 18.1723 29.5171 18.1723 28.9021C18.1723 28.1707 18.3302 27.539 18.6461 27.0071C18.9619 26.4752 19.3858 26.0596 19.9177 25.7604C20.4496 25.4612 21.0397 25.3116 21.688 25.3116C22.2865 25.3116 22.8184 25.4196 23.2838 25.6357C23.7493 25.8352 24.2064 26.1593 24.6552 26.6082C25.104 27.0404 25.5944 27.6138 26.1263 28.3286C26.5751 28.9104 26.9741 29.3759 27.3232 29.7249C27.6722 30.074 28.0296 30.3234 28.3953 30.473C28.761 30.6059 29.1849 30.6724 29.667 30.6724C30.4981 30.6724 31.1298 30.4065 31.562 29.8745C32.0108 29.3426 32.2352 28.5032 32.2352 27.3562C32.2352 26.4253 32.0773 25.5194 31.7614 24.6384C31.4622 23.7574 31.0383 22.9262 30.4898 22.145C29.9412 21.3471 29.3013 20.6073 28.5699 19.9258C27.8385 19.2277 27.0406 18.596 26.1762 18.0308C25.3118 17.4656 24.4142 16.9836 23.4833 16.5846L24.4308 14.5899C25.345 14.9722 26.2676 15.4626 27.1985 16.061C28.146 16.6428 29.0436 17.3327 29.8914 18.1306C30.7391 18.9118 31.4955 19.7845 32.1604 20.7486C32.8253 21.6961 33.3489 22.7267 33.7312 23.8405C34.1135 24.9542 34.3047 26.1427 34.3047 27.4061C34.3047 28.5032 34.1135 29.4423 33.7312 30.2236C33.3655 31.0049 32.8253 31.6033 32.1105 32.0189C31.4123 32.4344 30.5563 32.6422 29.5423 32.6422Z" fill="white"/>
</svg>
